<?xml version="1.0" encoding="us-ascii" standalone="no"?><svg xmlns="http://www.w3.org/2000/svg" xmlns:xlink="http://www.w3.org/1999/xlink" contentStyleType="text/css" height="1021px" preserveAspectRatio="none" style="width:554px;height:1021px;background:#FFFDF9;" version="1.1" viewBox="0 0 554 1021" width="554px" zoomAndPan="magnify"><defs/><g><rect fill="#FFFDF9" height="1021" style="stroke:none;stroke-width:1.0;" width="554" x="0" y="0"/><text fill="#000000" font-family="Arial" font-size="14" font-weight="bold" lengthAdjust="spacing" textLength="258" x="149.25" y="28.1318">P02 &#8212; T&#236;m ki&#7871;m v&#224; ki&#7875;m tra kh&#7843; d&#7909;ng</text><rect fill="none" height="711.3672" style="stroke:#D6A79E;stroke-width:1.5;" width="537.5" x="10" y="215.2939"/><rect fill="none" height="542.5742" style="stroke:#D6A79E;stroke-width:1.5;" width="517.5" x="20" y="377.0869"/><rect fill="none" height="87.1953" style="stroke:#D6A79E;stroke-width:1.5;" width="273" x="30" y="825.4658"/><line style="stroke:#C9B8AF;stroke-width:0.5;stroke-dasharray:5.0,5.0;" x1="70" x2="70" y1="115.8975" y2="943.6611"/><line style="stroke:#C9B8AF;stroke-width:0.5;stroke-dasharray:5.0,5.0;" x1="262" x2="262" y1="115.8975" y2="943.6611"/><text fill="#000000" font-family="Arial" font-size="12" lengthAdjust="spacing" textLength="55" x="40" y="113.3545">Customer</text><ellipse cx="70.5" cy="50.5986" fill="#FFF8F3" rx="8" ry="8" style="stroke:#806A60;stroke-width:0.5;"/><path d="M70.5,58.5986 L70.5,85.5986 M57.5,66.5986 L83.5,66.5986 M70.5,85.5986 L57.5,100.5986 M70.5,85.5986 L83.5,100.5986 " fill="none" style="stroke:#806A60;stroke-width:0.5;"/><text fill="#000000" font-family="Arial" font-size="12" lengthAdjust="spacing" textLength="55" x="40" y="953.917">Customer</text><ellipse cx="70.5" cy="964.96" fill="#FFF8F3" rx="8" ry="8" style="stroke:#806A60;stroke-width:0.5;"/><path d="M70.5,972.96 L70.5,999.96 M57.5,980.96 L83.5,980.96 M70.5,999.96 L57.5,1014.96 M70.5,999.96 L83.5,1014.96 " fill="none" style="stroke:#806A60;stroke-width:0.5;"/><rect fill="#FFFFFF" height="27.7988" rx="2.5" ry="2.5" style="stroke:#9A7F73;stroke-width:0.5;" width="61" x="232" y="87.0986"/><text fill="#000000" font-family="Arial" font-size="12" lengthAdjust="spacing" textLength="47" x="239" y="105.3545">D-SHOP</text><rect fill="#FFFFFF" height="27.7988" rx="2.5" ry="2.5" style="stroke:#9A7F73;stroke-width:0.5;" width="61" x="232" y="942.6611"/><text fill="#000000" font-family="Arial" font-size="12" lengthAdjust="spacing" textLength="47" x="239" y="960.917">D-SHOP</text><polygon fill="#6B5B53" points="250.5,155.4951,260.5,159.4951,250.5,163.4951,254.5,159.4951" style="stroke:#6B5B53;stroke-width:1.0;"/><line style="stroke:#6B5B53;stroke-width:1.0;" x1="70.5" x2="256.5" y1="159.4951" y2="159.4951"/><text fill="#000000" font-family="Arial" font-size="12" lengthAdjust="spacing" textLength="168" x="77.5" y="141.1533">Ch&#7885;n Garment, size, s&#7889; l&#432;&#7907;ng,</text><text fill="#000000" font-family="Arial" font-size="12" lengthAdjust="spacing" textLength="118" x="77.5" y="154.9521">ng&#224;y nh&#7853;n v&#224; ng&#224;y tr&#7843;</text><line style="stroke:#6B5B53;stroke-width:1.0;" x1="262.5" x2="304.5" y1="187.2939" y2="187.2939"/><line style="stroke:#6B5B53;stroke-width:1.0;" x1="304.5" x2="304.5" y1="187.2939" y2="200.2939"/><line style="stroke:#6B5B53;stroke-width:1.0;" x1="263.5" x2="304.5" y1="200.2939" y2="200.2939"/><polygon fill="#6B5B53" points="273.5,196.2939,263.5,200.2939,273.5,204.2939,269.5,200.2939" style="stroke:#6B5B53;stroke-width:1.0;"/><text fill="#000000" font-family="Arial" font-size="12" lengthAdjust="spacing" textLength="173" x="269.5" y="182.751">Ki&#7875;m tra d&#7919; li&#7879;u v&#224; kho&#7843;ng thu&#234;</text><path d="M10,215.2939 L69,215.2939 L69,221.0928 L59,231.0928 L10,231.0928 L10,215.2939 " fill="#FFF5EF" style="stroke:#D6A79E;stroke-width:1.5;"/><rect fill="none" height="711.3672" style="stroke:#D6A79E;stroke-width:1.5;" width="537.5" x="10" y="215.2939"/><text fill="#000000" font-family="Arial" font-size="12" font-weight="bold" lengthAdjust="spacing" textLength="14" x="25" y="227.5498">alt</text><text fill="#000000" font-family="Arial" font-size="12" font-weight="bold" lengthAdjust="spacing" textLength="125" x="84" y="228.5498">[D&#7919; li&#7879;u kh&#244;ng h&#7907;p l&#7879;]</text><polygon fill="#6B5B53" points="81.5,246.8916,71.5,250.8916,81.5,254.8916,77.5,250.8916" style="stroke:#6B5B53;stroke-width:1.0;"/><line style="stroke:#6B5B53;stroke-width:1.0;stroke-dasharray:2.0,2.0;" x1="75.5" x2="261.5" y1="250.8916" y2="250.8916"/><text fill="#000000" font-family="Arial" font-size="12" lengthAdjust="spacing" textLength="145" x="87.5" y="246.3486">Y&#234;u c&#7847;u &#273;i&#7873;u ch&#7881;nh d&#7919; li&#7879;u</text><line style="stroke:#D6A79E;stroke-width:1.0;stroke-dasharray:2.0,2.0;" x1="10" x2="547.5" y1="259.8916" y2="259.8916"/><text fill="#000000" font-family="Arial" font-size="12" font-weight="bold" lengthAdjust="spacing" textLength="87" x="15" y="271.1475">[D&#7919; li&#7879;u h&#7907;p l&#7879;]</text><line style="stroke:#6B5B53;stroke-width:1.0;" x1="262.5" x2="304.5" y1="308.2881" y2="308.2881"/><line style="stroke:#6B5B53;stroke-width:1.0;" x1="304.5" x2="304.5" y1="308.2881" y2="321.2881"/><line style="stroke:#6B5B53;stroke-width:1.0;" x1="263.5" x2="304.5" y1="321.2881" y2="321.2881"/><polygon fill="#6B5B53" points="273.5,317.2881,263.5,321.2881,273.5,325.2881,269.5,321.2881" style="stroke:#6B5B53;stroke-width:1.0;"/><text fill="#000000" font-family="Arial" font-size="12" lengthAdjust="spacing" textLength="155" x="269.5" y="289.9463">Chu&#7849;n h&#243;a ng&#224;y nh&#7853;n 08:00</text><text fill="#000000" font-family="Arial" font-size="12" lengthAdjust="spacing" textLength="92" x="269.5" y="303.7451">v&#224; ng&#224;y tr&#7843; 18:00</text><line style="stroke:#6B5B53;stroke-width:1.0;" x1="262.5" x2="304.5" y1="349.0869" y2="349.0869"/><line style="stroke:#6B5B53;stroke-width:1.0;" x1="304.5" x2="304.5" y1="349.0869" y2="362.0869"/><line style="stroke:#6B5B53;stroke-width:1.0;" x1="263.5" x2="304.5" y1="362.0869" y2="362.0869"/><polygon fill="#6B5B53" points="273.5,358.0869,263.5,362.0869,273.5,366.0869,269.5,362.0869" style="stroke:#6B5B53;stroke-width:1.0;"/><text fill="#000000" font-family="Arial" font-size="12" lengthAdjust="spacing" textLength="168" x="269.5" y="344.5439">L&#7845;y RentalPolicy &#273;ang hi&#7879;u l&#7921;c</text><path d="M20,377.0869 L79,377.0869 L79,382.8857 L69,392.8857 L20,392.8857 L20,377.0869 " fill="#FFF5EF" style="stroke:#D6A79E;stroke-width:1.5;"/><rect fill="none" height="542.5742" style="stroke:#D6A79E;stroke-width:1.5;" width="517.5" x="20" y="377.0869"/><text fill="#000000" font-family="Arial" font-size="12" font-weight="bold" lengthAdjust="spacing" textLength="14" x="35" y="389.3428">alt</text><text fill="#000000" font-family="Arial" font-size="12" font-weight="bold" lengthAdjust="spacing" textLength="183" x="94" y="390.3428">[Kh&#244;ng c&#243; RentalPolicy hi&#7879;u l&#7921;c]</text><polygon fill="#6B5B53" points="81.5,408.6846,71.5,412.6846,81.5,416.6846,77.5,412.6846" style="stroke:#6B5B53;stroke-width:1.0;"/><line style="stroke:#6B5B53;stroke-width:1.0;stroke-dasharray:2.0,2.0;" x1="75.5" x2="261.5" y1="412.6846" y2="412.6846"/><text fill="#000000" font-family="Arial" font-size="12" lengthAdjust="spacing" textLength="162" x="87.5" y="408.1416">Kh&#244;ng th&#7875; ki&#7875;m tra availability</text><line style="stroke:#D6A79E;stroke-width:1.0;stroke-dasharray:2.0,2.0;" x1="20" x2="537.5" y1="421.6846" y2="421.6846"/><text fill="#000000" font-family="Arial" font-size="12" font-weight="bold" lengthAdjust="spacing" textLength="96" x="25" y="432.9404">[C&#243; RentalPolicy]</text><line style="stroke:#6B5B53;stroke-width:1.0;" x1="262.5" x2="304.5" y1="456.2822" y2="456.2822"/><line style="stroke:#6B5B53;stroke-width:1.0;" x1="304.5" x2="304.5" y1="456.2822" y2="469.2822"/><line style="stroke:#6B5B53;stroke-width:1.0;" x1="263.5" x2="304.5" y1="469.2822" y2="469.2822"/><polygon fill="#6B5B53" points="273.5,465.2822,263.5,469.2822,273.5,473.2822,269.5,469.2822" style="stroke:#6B5B53;stroke-width:1.0;"/><text fill="#000000" font-family="Arial" font-size="12" lengthAdjust="spacing" textLength="171" x="269.5" y="451.7393">T&#237;nh requested blocked interval</text><path d="M267,482.2822 L267,533.2822 L491,533.2822 L491,492.2822 L481,482.2822 L267,482.2822 " fill="#FFF2E8" style="stroke:#D6A79E;stroke-width:0.5;"/><path d="M481,482.2822 L481,492.2822 L491,492.2822 L481,482.2822 " fill="#FFF2E8" style="stroke:#D6A79E;stroke-width:0.5;"/><text fill="#000000" font-family="Arial" font-size="12" lengthAdjust="spacing" textLength="203" x="273" y="498.5381">blockedStartAt = rentalStartAt - 1 ng&#224;y</text><text fill="#000000" font-family="Arial" font-size="12" lengthAdjust="spacing" textLength="202" x="273" y="512.3369">blockedEndAt = returnDueAt + 1 ng&#224;y</text><text fill="#000000" font-family="Arial" font-size="12" lengthAdjust="spacing" textLength="123" x="273" y="526.1357">Interval: [startAt, endAt)</text><line style="stroke:#6B5B53;stroke-width:1.0;" x1="262.5" x2="304.5" y1="558.4775" y2="558.4775"/><line style="stroke:#6B5B53;stroke-width:1.0;" x1="304.5" x2="304.5" y1="558.4775" y2="571.4775"/><line style="stroke:#6B5B53;stroke-width:1.0;" x1="263.5" x2="304.5" y1="571.4775" y2="571.4775"/><polygon fill="#6B5B53" points="273.5,567.4775,263.5,571.4775,273.5,575.4775,269.5,571.4775" style="stroke:#6B5B53;stroke-width:1.0;"/><text fill="#000000" font-family="Arial" font-size="12" lengthAdjust="spacing" textLength="256" x="269.5" y="553.9346">L&#7885;c RentalUnit theo Garment, size v&#224; tr&#7841;ng th&#225;i</text><line style="stroke:#6B5B53;stroke-width:1.0;" x1="262.5" x2="304.5" y1="599.2764" y2="599.2764"/><line style="stroke:#6B5B53;stroke-width:1.0;" x1="304.5" x2="304.5" y1="599.2764" y2="612.2764"/><line style="stroke:#6B5B53;stroke-width:1.0;" x1="263.5" x2="304.5" y1="612.2764" y2="612.2764"/><polygon fill="#6B5B53" points="273.5,608.2764,263.5,612.2764,273.5,616.2764,269.5,612.2764" style="stroke:#6B5B53;stroke-width:1.0;"/><text fill="#000000" font-family="Arial" font-size="12" lengthAdjust="spacing" textLength="196" x="269.5" y="594.7334">Lo&#7841;i Reservation hi&#7879;u l&#7921;c b&#7883; overlap</text><path d="M267,625.2764 L267,731.2764 L478,731.2764 L478,635.2764 L468,625.2764 L267,625.2764 " fill="#FFF2E8" style="stroke:#D6A79E;stroke-width:0.5;"/><path d="M468,625.2764 L468,635.2764 L478,635.2764 L468,625.2764 " fill="#FFF2E8" style="stroke:#D6A79E;stroke-width:0.5;"/><text fill="#000000" font-family="Arial" font-size="12" lengthAdjust="spacing" textLength="110" x="273" y="641.5322">Tr&#7841;ng th&#225;i ch&#7863;n l&#7883;ch:</text><text fill="#000000" font-family="Arial" font-size="12" lengthAdjust="spacing" textLength="164" x="273" y="655.3311">TEMPORARY_HOLD c&#242;n h&#7841;n,</text><text fill="#000000" font-family="Arial" font-size="12" lengthAdjust="spacing" textLength="122" x="273" y="669.1299">CONFIRMED, ACTIVE.</text><text fill="#000000" font-family="Arial" font-size="12" lengthAdjust="spacing" textLength="3" x="273" y="682.9287">&#160;</text><text fill="#000000" font-family="Arial" font-size="12" lengthAdjust="spacing" textLength="64" x="273" y="696.7275">Overlap khi:</text><text fill="#000000" font-family="Arial" font-size="12" lengthAdjust="spacing" textLength="162" x="273" y="710.5264">existing.start &lt; requested.end</text><text fill="#000000" font-family="Arial" font-size="12" lengthAdjust="spacing" textLength="190" x="273" y="724.3252">AND existing.end &gt; requested.start</text><line style="stroke:#6B5B53;stroke-width:1.0;" x1="262.5" x2="304.5" y1="756.667" y2="756.667"/><line style="stroke:#6B5B53;stroke-width:1.0;" x1="304.5" x2="304.5" y1="756.667" y2="769.667"/><line style="stroke:#6B5B53;stroke-width:1.0;" x1="263.5" x2="304.5" y1="769.667" y2="769.667"/><polygon fill="#6B5B53" points="273.5,765.667,263.5,769.667,273.5,773.667,269.5,769.667" style="stroke:#6B5B53;stroke-width:1.0;"/><text fill="#000000" font-family="Arial" font-size="12" lengthAdjust="spacing" textLength="169" x="269.5" y="752.124">Lo&#7841;i AvailabilityBlock b&#7883; overlap</text><line style="stroke:#6B5B53;stroke-width:1.0;" x1="262.5" x2="304.5" y1="797.4658" y2="797.4658"/><line style="stroke:#6B5B53;stroke-width:1.0;" x1="304.5" x2="304.5" y1="797.4658" y2="810.4658"/><line style="stroke:#6B5B53;stroke-width:1.0;" x1="263.5" x2="304.5" y1="810.4658" y2="810.4658"/><polygon fill="#6B5B53" points="273.5,806.4658,263.5,810.4658,273.5,814.4658,269.5,810.4658" style="stroke:#6B5B53;stroke-width:1.0;"/><text fill="#000000" font-family="Arial" font-size="12" lengthAdjust="spacing" textLength="204" x="269.5" y="792.9229">So s&#225;nh s&#7889; unit kh&#7843; d&#7909;ng v&#7899;i quantity</text><path d="M30,825.4658 L89,825.4658 L89,831.2646 L79,841.2646 L30,841.2646 L30,825.4658 " fill="#FFF5EF" style="stroke:#D6A79E;stroke-width:1.5;"/><rect fill="none" height="87.1953" style="stroke:#D6A79E;stroke-width:1.5;" width="273" x="30" y="825.4658"/><text fill="#000000" font-family="Arial" font-size="12" font-weight="bold" lengthAdjust="spacing" textLength="14" x="45" y="837.7217">alt</text><text fill="#000000" font-family="Arial" font-size="12" font-weight="bold" lengthAdjust="spacing" textLength="140" x="104" y="838.7217">[&#272;&#7911; RentalUnit kh&#7843; d&#7909;ng]</text><polygon fill="#6B5B53" points="81.5,857.0635,71.5,861.0635,81.5,865.0635,77.5,861.0635" style="stroke:#6B5B53;stroke-width:1.0;"/><line style="stroke:#6B5B53;stroke-width:1.0;stroke-dasharray:2.0,2.0;" x1="75.5" x2="261.5" y1="861.0635" y2="861.0635"/><text fill="#000000" font-family="Arial" font-size="12" lengthAdjust="spacing" textLength="166" x="87.5" y="856.5205">Hi&#7875;n th&#7883; trang ph&#7909;c c&#243; th&#7875; thu&#234;</text><line style="stroke:#D6A79E;stroke-width:1.0;stroke-dasharray:2.0,2.0;" x1="30" x2="303" y1="870.0635" y2="870.0635"/><text fill="#000000" font-family="Arial" font-size="12" font-weight="bold" lengthAdjust="spacing" textLength="177" x="35" y="881.3193">[Kh&#244;ng &#273;&#7911; RentalUnit kh&#7843; d&#7909;ng]</text><polygon fill="#6B5B53" points="81.5,900.6611,71.5,904.6611,81.5,908.6611,77.5,904.6611" style="stroke:#6B5B53;stroke-width:1.0;"/><line style="stroke:#6B5B53;stroke-width:1.0;stroke-dasharray:2.0,2.0;" x1="75.5" x2="261.5" y1="904.6611" y2="904.6611"/><text fill="#000000" font-family="Arial" font-size="12" lengthAdjust="spacing" textLength="150" x="87.5" y="900.1182">Th&#244;ng b&#225;o kh&#244;ng kh&#7843; d&#7909;ng</text><!--SRC=[fLNVQnj747w_ls98dqfa8plObaKREFsAZHLBM6eXD51MfxLkqMbNsTjJeeH0GXvACOKOyjQN26D2GqD_912G7lfmfl_7zI_fxDr9teilIQ4BjhGxCz_CVFlDIZ7bKMWND-6V9o-W6_uwWY6Bvd-DO1A-r5yNpqQW986X6ytFe1yjpld0ilmXusCYoGXwn1aEf0Xuloey8U6BHgDHQ-mQ7drwJ09FDGHNXsH4mPQCUFds3dj8OMFJCFekwOlxZ0_Wc7W-DIosbE9-cdExibNPkc66qNi1vGw5HnRWiXqbP2MdqbBZXk4WP9_Ar5WgRjlRnTZO9b8nXuq9LtaOkAwucKYxzavZ9qdJPCUqoJZDsAkxbPATGDn2w75UZgswwM16rxRjdTswzTXedWkrR3mFQxDUIcovC1RHL40ry9KOKMcDBxk2QxMrpbwhVGs83vsfh-Z8ifQEi7OpFOCoLDreyHE7MqIEA5S5yF5UyN-qE0Nlxz-ZnHaV5EvoFWXVJe6ZiDxmM6x9WPAeD2l5Cb4FBjM8ElmDFDp_42H2TGK6eKgK6uIliGbFGStm6RhXExHYMMTZyF0ePc2P0vEisYZ3dV1r04uqVnN0nIc6FyKT1lx8NJEjHL6EcHmV0S_G4aJpNpYuuLi2cUwBfNAnU9T_G09iwEEFeJMZ-VaKZf1WuhM5nvmfrajqbqazMCaVZXL7QpeE4WgSy6qs9kCDwSfd9eLGsEapysqW4y8yqcCUKzCO8kQc-a6cA-16Bztm3T8hzTJYIHzwdd26-CcuedA2pyKoDjQsP0DNWJXUYX1MAuthA5IjhU1hXDG5BFThi97mUpMapljfW0eahmKKTzTptFVJYihmdP-W5e3gs2zNJhYDwxG-rN4J9yH9-Vc6CuMiKf6Tc5ZPMWYpcFHmnZu9Y1CmOuZew_eK4pnpjT2B5YSW9bHwPFnVwUoQoVKKpDzp3NVYk6NJhNwxtJgoZ-vylzTgrb1YVs9k7LamdAgjmyR-qUrwhG1sjRl_RNtTCgojf30SL6OYqmVCL_ZwhyTSmrUN4bb7bWr7-x1swQmluARX6WTVlPxFasaRmgvedUIpc0FG4U27CzHq_EW5-eBDNr2OH8kV6TmBy5dLGxE2qfDwyJnQl3AbaVdj1MFbZ-cUdamUZ-c9dazCDyRlvquy_Cdq9k_aYX8zh-bqNvp-l-pT1AONpiJosSr5MDwV_jH__m80]--></g></svg>