<?xml version="1.0" encoding="us-ascii" standalone="no"?><svg xmlns="http://www.w3.org/2000/svg" xmlns:xlink="http://www.w3.org/1999/xlink" contentStyleType="text/css" height="1508px" preserveAspectRatio="none" style="width:914px;height:1508px;background:#FFFDF9;" version="1.1" viewBox="0 0 914 1508" width="914px" zoomAndPan="magnify"><defs/><g><rect fill="#FFFDF9" height="1508" style="stroke:none;stroke-width:1.0;" width="914" x="0" y="0"/><text fill="#000000" font-family="Arial" font-size="14" font-weight="bold" lengthAdjust="spacing" textLength="341" x="287.75" y="28.1318">P07 &#8212; Quy&#7871;t to&#225;n, ph&#234; duy&#7879;t ph&#237; v&#224; ho&#224;n t&#7845;t &#273;&#417;n</text><rect fill="none" height="318.5859" style="stroke:#D6A79E;stroke-width:1.5;" width="618" x="177" y="385.2881"/><rect fill="none" height="451.5801" style="stroke:#D6A79E;stroke-width:1.5;" width="897.5" x="10" y="717.874"/><rect fill="none" height="128.793" style="stroke:#D6A79E;stroke-width:1.5;" width="720.5" x="177" y="781.4717"/><rect fill="none" height="127.9941" style="stroke:#D6A79E;stroke-width:1.5;" width="557" x="177" y="1224.2529"/><line style="stroke:#C9B8AF;stroke-width:0.5;stroke-dasharray:5.0,5.0;" x1="50" x2="50" y1="115.8975" y2="1430.6436"/><line style="stroke:#C9B8AF;stroke-width:0.5;stroke-dasharray:5.0,5.0;" x1="221" x2="221" y1="115.8975" y2="1430.6436"/><line style="stroke:#C9B8AF;stroke-width:0.5;stroke-dasharray:5.0,5.0;" x1="309" x2="309" y1="115.8975" y2="1430.6436"/><line style="stroke:#C9B8AF;stroke-width:0.5;stroke-dasharray:5.0,5.0;" x1="560.5" x2="560.5" y1="115.8975" y2="1430.6436"/><line style="stroke:#C9B8AF;stroke-width:0.5;stroke-dasharray:5.0,5.0;" x1="834.5" x2="834.5" y1="115.8975" y2="1430.6436"/><text fill="#000000" font-family="Arial" font-size="12" lengthAdjust="spacing" textLength="55" x="20" y="113.3545">Customer</text><ellipse cx="50.5" cy="50.5986" fill="#FFF8F3" rx="8" ry="8" style="stroke:#806A60;stroke-width:0.5;"/><path d="M50.5,58.5986 L50.5,85.5986 M37.5,66.5986 L63.5,66.5986 M50.5,85.5986 L37.5,100.5986 M50.5,85.5986 L63.5,100.5986 " fill="none" style="stroke:#806A60;stroke-width:0.5;"/><text fill="#000000" font-family="Arial" font-size="12" lengthAdjust="spacing" textLength="55" x="20" y="1440.8994">Customer</text><ellipse cx="50.5" cy="1451.9424" fill="#FFF8F3" rx="8" ry="8" style="stroke:#806A60;stroke-width:0.5;"/><path d="M50.5,1459.9424 L50.5,1486.9424 M37.5,1467.9424 L63.5,1467.9424 M50.5,1486.9424 L37.5,1501.9424 M50.5,1486.9424 L63.5,1501.9424 " fill="none" style="stroke:#806A60;stroke-width:0.5;"/><text fill="#000000" font-family="Arial" font-size="12" lengthAdjust="spacing" textLength="63" x="187" y="113.3545">Rental Staff</text><ellipse cx="221.5" cy="50.5986" fill="#FFF8F3" rx="8" ry="8" style="stroke:#806A60;stroke-width:0.5;"/><path d="M221.5,58.5986 L221.5,85.5986 M208.5,66.5986 L234.5,66.5986 M221.5,85.5986 L208.5,100.5986 M221.5,85.5986 L234.5,100.5986 " fill="none" style="stroke:#806A60;stroke-width:0.5;"/><text fill="#000000" font-family="Arial" font-size="12" lengthAdjust="spacing" textLength="63" x="187" y="1440.8994">Rental Staff</text><ellipse cx="221.5" cy="1451.9424" fill="#FFF8F3" rx="8" ry="8" style="stroke:#806A60;stroke-width:0.5;"/><path d="M221.5,1459.9424 L221.5,1486.9424 M208.5,1467.9424 L234.5,1467.9424 M221.5,1486.9424 L208.5,1501.9424 M221.5,1486.9424 L234.5,1501.9424 " fill="none" style="stroke:#806A60;stroke-width:0.5;"/><text fill="#000000" font-family="Arial" font-size="12" lengthAdjust="spacing" textLength="80" x="266" y="113.3545">Store Manager</text><ellipse cx="309" cy="50.5986" fill="#FFF8F3" rx="8" ry="8" style="stroke:#806A60;stroke-width:0.5;"/><path d="M309,58.5986 L309,85.5986 M296,66.5986 L322,66.5986 M309,85.5986 L296,100.5986 M309,85.5986 L322,100.5986 " fill="none" style="stroke:#806A60;stroke-width:0.5;"/><text fill="#000000" font-family="Arial" font-size="12" lengthAdjust="spacing" textLength="80" x="266" y="1440.8994">Store Manager</text><ellipse cx="309" cy="1451.9424" fill="#FFF8F3" rx="8" ry="8" style="stroke:#806A60;stroke-width:0.5;"/><path d="M309,1459.9424 L309,1486.9424 M296,1467.9424 L322,1467.9424 M309,1486.9424 L296,1501.9424 M309,1486.9424 L322,1501.9424 " fill="none" style="stroke:#806A60;stroke-width:0.5;"/><rect fill="#FFFFFF" height="27.7988" rx="2.5" ry="2.5" style="stroke:#9A7F73;stroke-width:0.5;" width="61" x="530.5" y="87.0986"/><text fill="#000000" font-family="Arial" font-size="12" lengthAdjust="spacing" textLength="47" x="537.5" y="105.3545">D-SHOP</text><rect fill="#FFFFFF" height="27.7988" rx="2.5" ry="2.5" style="stroke:#9A7F73;stroke-width:0.5;" width="61" x="530.5" y="1429.6436"/><text fill="#000000" font-family="Arial" font-size="12" lengthAdjust="spacing" textLength="47" x="537.5" y="1447.8994">D-SHOP</text><rect fill="#FFFFFF" height="27.7988" rx="2.5" ry="2.5" style="stroke:#9A7F73;stroke-width:0.5;" width="105" x="782.5" y="87.0986"/><text fill="#000000" font-family="Arial" font-size="12" lengthAdjust="spacing" textLength="91" x="789.5" y="105.3545">Payment Service</text><rect fill="#FFFFFF" height="27.7988" rx="2.5" ry="2.5" style="stroke:#9A7F73;stroke-width:0.5;" width="105" x="782.5" y="1429.6436"/><text fill="#000000" font-family="Arial" font-size="12" lengthAdjust="spacing" textLength="91" x="789.5" y="1447.8994">Payment Service</text><polygon fill="#6B5B53" points="549,141.6963,559,145.6963,549,149.6963,553,145.6963" style="stroke:#6B5B53;stroke-width:1.0;"/><line style="stroke:#6B5B53;stroke-width:1.0;" x1="221.5" x2="555" y1="145.6963" y2="145.6963"/><text fill="#000000" font-family="Arial" font-size="12" lengthAdjust="spacing" textLength="230" x="228.5" y="141.1533">M&#7903; RentalOrder SETTLEMENT_PENDING</text><line style="stroke:#6B5B53;stroke-width:1.0;" x1="561" x2="603" y1="173.4951" y2="173.4951"/><line style="stroke:#6B5B53;stroke-width:1.0;" x1="603" x2="603" y1="173.4951" y2="186.4951"/><line style="stroke:#6B5B53;stroke-width:1.0;" x1="562" x2="603" y1="186.4951" y2="186.4951"/><polygon fill="#6B5B53" points="572,182.4951,562,186.4951,572,190.4951,568,186.4951" style="stroke:#6B5B53;stroke-width:1.0;"/><text fill="#000000" font-family="Arial" font-size="12" lengthAdjust="spacing" textLength="235" x="568" y="168.9521">T&#7893;ng proposedCharge t&#7915; InspectionResult</text><line style="stroke:#6B5B53;stroke-width:1.0;" x1="561" x2="603" y1="214.2939" y2="214.2939"/><line style="stroke:#6B5B53;stroke-width:1.0;" x1="603" x2="603" y1="214.2939" y2="227.2939"/><line style="stroke:#6B5B53;stroke-width:1.0;" x1="562" x2="603" y1="227.2939" y2="227.2939"/><polygon fill="#6B5B53" points="572,223.2939,562,227.2939,572,231.2939,568,227.2939" style="stroke:#6B5B53;stroke-width:1.0;"/><text fill="#000000" font-family="Arial" font-size="12" lengthAdjust="spacing" textLength="184" x="568" y="209.751">T&#237;nh lateFee theo policy snapshot</text><line style="stroke:#6B5B53;stroke-width:1.0;" x1="561" x2="603" y1="255.0928" y2="255.0928"/><line style="stroke:#6B5B53;stroke-width:1.0;" x1="603" x2="603" y1="255.0928" y2="268.0928"/><line style="stroke:#6B5B53;stroke-width:1.0;" x1="562" x2="603" y1="268.0928" y2="268.0928"/><polygon fill="#6B5B53" points="572,264.0928,562,268.0928,572,272.0928,568,268.0928" style="stroke:#6B5B53;stroke-width:1.0;"/><text fill="#000000" font-family="Arial" font-size="12" lengthAdjust="spacing" textLength="260" x="568" y="250.5498">additionalCharge = inspectionCharge + lateFee</text><line style="stroke:#6B5B53;stroke-width:1.0;" x1="561" x2="603" y1="309.6904" y2="309.6904"/><line style="stroke:#6B5B53;stroke-width:1.0;" x1="603" x2="603" y1="309.6904" y2="322.6904"/><line style="stroke:#6B5B53;stroke-width:1.0;" x1="562" x2="603" y1="322.6904" y2="322.6904"/><polygon fill="#6B5B53" points="572,318.6904,562,322.6904,572,326.6904,568,322.6904" style="stroke:#6B5B53;stroke-width:1.0;"/><text fill="#000000" font-family="Arial" font-size="12" lengthAdjust="spacing" textLength="153" x="568" y="291.3486">T&#237;nh depositRefundAmount,</text><text fill="#000000" font-family="Arial" font-size="12" lengthAdjust="spacing" textLength="184" x="568" y="305.1475">additionalPayment v&#224; finalCharge</text><path d="M566,335.6904 L566,372.6904 L817,372.6904 L817,345.6904 L807,335.6904 L566,335.6904 " fill="#FFF2E8" style="stroke:#D6A79E;stroke-width:0.5;"/><path d="M807,335.6904 L807,345.6904 L817,345.6904 L807,335.6904 " fill="#FFF2E8" style="stroke:#D6A79E;stroke-width:0.5;"/><text fill="#000000" font-family="Arial" font-size="12" lengthAdjust="spacing" textLength="230" x="572" y="351.9463">08:00-12:00: (d - 0.5) &#215; dailyRentalAmount</text><text fill="#000000" font-family="Arial" font-size="12" lengthAdjust="spacing" textLength="220" x="572" y="365.7451">Sau 12:00-18:00: d &#215; dailyRentalAmount</text><path d="M177,385.2881 L236,385.2881 L236,391.0869 L226,401.0869 L177,401.0869 L177,385.2881 " fill="#FFF5EF" style="stroke:#D6A79E;stroke-width:1.5;"/><rect fill="none" height="318.5859" style="stroke:#D6A79E;stroke-width:1.5;" width="618" x="177" y="385.2881"/><text fill="#000000" font-family="Arial" font-size="12" font-weight="bold" lengthAdjust="spacing" textLength="14" x="192" y="397.5439">alt</text><text fill="#000000" font-family="Arial" font-size="12" font-weight="bold" lengthAdjust="spacing" textLength="162" x="251" y="398.5439">[Ph&#237; v&#432;&#7907;t approvalThreshold</text><text fill="#000000" font-family="Arial" font-size="12" font-weight="bold" lengthAdjust="spacing" textLength="193" x="251" y="412.3428">ho&#7863;c c&#243; SEVERE_DAMAGE / LOST]</text><line style="stroke:#6B5B53;stroke-width:1.0;" x1="561" x2="603" y1="433.4834" y2="433.4834"/><line style="stroke:#6B5B53;stroke-width:1.0;" x1="603" x2="603" y1="433.4834" y2="446.4834"/><line style="stroke:#6B5B53;stroke-width:1.0;" x1="562" x2="603" y1="446.4834" y2="446.4834"/><polygon fill="#6B5B53" points="572,442.4834,562,446.4834,572,450.4834,568,446.4834" style="stroke:#6B5B53;stroke-width:1.0;"/><text fill="#000000" font-family="Arial" font-size="12" lengthAdjust="spacing" textLength="207" x="568" y="428.9404">T&#7841;o FeeApprovalRequest = PENDING</text><polygon fill="#6B5B53" points="232.5,470.2822,222.5,474.2822,232.5,478.2822,228.5,474.2822" style="stroke:#6B5B53;stroke-width:1.0;"/><line style="stroke:#6B5B53;stroke-width:1.0;stroke-dasharray:2.0,2.0;" x1="226.5" x2="560" y1="474.2822" y2="474.2822"/><text fill="#000000" font-family="Arial" font-size="12" lengthAdjust="spacing" textLength="163" x="238.5" y="469.7393">Ch&#7901; Store Manager ph&#234; duy&#7879;t</text><polygon fill="#6B5B53" points="549,498.0811,559,502.0811,549,506.0811,553,502.0811" style="stroke:#6B5B53;stroke-width:1.0;"/><line style="stroke:#6B5B53;stroke-width:1.0;" x1="309" x2="555" y1="502.0811" y2="502.0811"/><text fill="#000000" font-family="Arial" font-size="12" lengthAdjust="spacing" textLength="228" x="316" y="497.5381">Xem ph&#237;, InspectionResult v&#224; b&#7857;ng ch&#7913;ng</text><polygon fill="#6B5B53" points="549,525.8799,559,529.8799,549,533.8799,553,529.8799" style="stroke:#6B5B53;stroke-width:1.0;"/><line style="stroke:#6B5B53;stroke-width:1.0;" x1="309" x2="555" y1="529.8799" y2="529.8799"/><text fill="#000000" font-family="Arial" font-size="12" lengthAdjust="spacing" textLength="167" x="316" y="525.3369">APPROVE / ADJUST / REJECT</text><line style="stroke:#6B5B53;stroke-width:1.0;" x1="561" x2="603" y1="557.6787" y2="557.6787"/><line style="stroke:#6B5B53;stroke-width:1.0;" x1="603" x2="603" y1="557.6787" y2="570.6787"/><line style="stroke:#6B5B53;stroke-width:1.0;" x1="562" x2="603" y1="570.6787" y2="570.6787"/><polygon fill="#6B5B53" points="572,566.6787,562,570.6787,572,574.6787,568,570.6787" style="stroke:#6B5B53;stroke-width:1.0;"/><text fill="#000000" font-family="Arial" font-size="12" lengthAdjust="spacing" textLength="185" x="568" y="553.1357">Ghi quy&#7871;t &#273;&#7883;nh v&#224; resolvedAmount</text><line style="stroke:#6B5B53;stroke-width:1.0;" x1="561" x2="603" y1="598.4775" y2="598.4775"/><line style="stroke:#6B5B53;stroke-width:1.0;" x1="603" x2="603" y1="598.4775" y2="611.4775"/><line style="stroke:#6B5B53;stroke-width:1.0;" x1="562" x2="603" y1="611.4775" y2="611.4775"/><polygon fill="#6B5B53" points="572,607.4775,562,611.4775,572,615.4775,568,611.4775" style="stroke:#6B5B53;stroke-width:1.0;"/><text fill="#000000" font-family="Arial" font-size="12" lengthAdjust="spacing" textLength="139" x="568" y="593.9346">T&#237;nh l&#7841;i s&#7889; ti&#7873;n quy&#7871;t to&#225;n</text><line style="stroke:#D6A79E;stroke-width:1.0;stroke-dasharray:2.0,2.0;" x1="177" x2="795" y1="620.4775" y2="620.4775"/><text fill="#000000" font-family="Arial" font-size="12" font-weight="bold" lengthAdjust="spacing" textLength="154" x="182" y="631.7334">[Ph&#237; n&#7857;m trong quy&#7873;n Staff]</text><polygon fill="#6B5B53" points="549,651.0752,559,655.0752,549,659.0752,553,655.0752" style="stroke:#6B5B53;stroke-width:1.0;"/><line style="stroke:#6B5B53;stroke-width:1.0;" x1="221.5" x2="555" y1="655.0752" y2="655.0752"/><text fill="#000000" font-family="Arial" font-size="12" lengthAdjust="spacing" textLength="108" x="228.5" y="650.5322">X&#225;c nh&#7853;n kho&#7843;n ph&#237;</text><line style="stroke:#6B5B53;stroke-width:1.0;" x1="561" x2="603" y1="682.874" y2="682.874"/><line style="stroke:#6B5B53;stroke-width:1.0;" x1="603" x2="603" y1="682.874" y2="695.874"/><line style="stroke:#6B5B53;stroke-width:1.0;" x1="562" x2="603" y1="695.874" y2="695.874"/><polygon fill="#6B5B53" points="572,691.874,562,695.874,572,699.874,568,695.874" style="stroke:#6B5B53;stroke-width:1.0;"/><text fill="#000000" font-family="Arial" font-size="12" lengthAdjust="spacing" textLength="215" x="568" y="678.3311">Ghi FeeApprovalRequest = APPROVED</text><path d="M10,717.874 L69,717.874 L69,723.6729 L59,733.6729 L10,733.6729 L10,717.874 " fill="#FFF5EF" style="stroke:#D6A79E;stroke-width:1.5;"/><rect fill="none" height="451.5801" style="stroke:#D6A79E;stroke-width:1.5;" width="897.5" x="10" y="717.874"/><text fill="#000000" font-family="Arial" font-size="12" font-weight="bold" lengthAdjust="spacing" textLength="14" x="25" y="730.1299">alt</text><text fill="#000000" font-family="Arial" font-size="12" font-weight="bold" lengthAdjust="spacing" textLength="154" x="84" y="731.1299">[depositRefundAmount &gt; 0]</text><line style="stroke:#6B5B53;stroke-width:1.0;" x1="561" x2="603" y1="753.4717" y2="753.4717"/><line style="stroke:#6B5B53;stroke-width:1.0;" x1="603" x2="603" y1="753.4717" y2="766.4717"/><line style="stroke:#6B5B53;stroke-width:1.0;" x1="562" x2="603" y1="766.4717" y2="766.4717"/><polygon fill="#6B5B53" points="572,762.4717,562,766.4717,572,770.4717,568,766.4717" style="stroke:#6B5B53;stroke-width:1.0;"/><text fill="#000000" font-family="Arial" font-size="12" lengthAdjust="spacing" textLength="227" x="568" y="748.9287">T&#7841;o/c&#7853;p nh&#7853;t Refund DEPOSIT_RETURN</text><path d="M177,781.4717 L236,781.4717 L236,787.2705 L226,797.2705 L177,797.2705 L177,781.4717 " fill="#FFF5EF" style="stroke:#D6A79E;stroke-width:1.5;"/><rect fill="none" height="128.793" style="stroke:#D6A79E;stroke-width:1.5;" width="720.5" x="177" y="781.4717"/><text fill="#000000" font-family="Arial" font-size="12" font-weight="bold" lengthAdjust="spacing" textLength="14" x="192" y="793.7275">alt</text><text fill="#000000" font-family="Arial" font-size="12" font-weight="bold" lengthAdjust="spacing" textLength="174" x="251" y="794.7275">[C&#7885;c thu qua Payment Service]</text><polygon fill="#6B5B53" points="823,813.0693,833,817.0693,823,821.0693,827,817.0693" style="stroke:#6B5B53;stroke-width:1.0;"/><line style="stroke:#6B5B53;stroke-width:1.0;" x1="561" x2="829" y1="817.0693" y2="817.0693"/><text fill="#000000" font-family="Arial" font-size="12" lengthAdjust="spacing" textLength="236" x="568" y="812.5264">Y&#234;u c&#7847;u/&#273;&#7889;i so&#225;t ho&#224;n ti&#7873;n n&#7871;u &#273;&#432;&#7907;c h&#7895; tr&#7907;</text><polygon fill="#6B5B53" points="572,840.8682,562,844.8682,572,848.8682,568,844.8682" style="stroke:#6B5B53;stroke-width:1.0;"/><line style="stroke:#6B5B53;stroke-width:1.0;" x1="566" x2="834" y1="844.8682" y2="844.8682"/><text fill="#000000" font-family="Arial" font-size="12" lengthAdjust="spacing" textLength="96" x="578" y="840.3252">K&#7871;t qu&#7843; ho&#224;n ti&#7873;n</text><line style="stroke:#D6A79E;stroke-width:1.0;stroke-dasharray:2.0,2.0;" x1="177" x2="897.5" y1="853.8682" y2="853.8682"/><text fill="#000000" font-family="Arial" font-size="12" font-weight="bold" lengthAdjust="spacing" textLength="103" x="182" y="865.124">[C&#7885;c thu tr&#7921;c ti&#7871;p]</text><polygon fill="#6B5B53" points="549,898.2646,559,902.2646,549,906.2646,553,902.2646" style="stroke:#6B5B53;stroke-width:1.0;"/><line style="stroke:#6B5B53;stroke-width:1.0;" x1="221.5" x2="555" y1="902.2646" y2="902.2646"/><text fill="#000000" font-family="Arial" font-size="12" lengthAdjust="spacing" textLength="139" x="228.5" y="883.9229">Ghi s&#7889; ti&#7873;n, ph&#432;&#417;ng th&#7913;c,</text><text fill="#000000" font-family="Arial" font-size="12" lengthAdjust="spacing" textLength="141" x="228.5" y="897.7217">th&#7901;i &#273;i&#7875;m v&#224; k&#7871;t qu&#7843; ho&#224;n</text><polygon fill="#6B5B53" points="61.5,933.0635,51.5,937.0635,61.5,941.0635,57.5,937.0635" style="stroke:#6B5B53;stroke-width:1.0;"/><line style="stroke:#6B5B53;stroke-width:1.0;stroke-dasharray:2.0,2.0;" x1="55.5" x2="560" y1="937.0635" y2="937.0635"/><text fill="#000000" font-family="Arial" font-size="12" lengthAdjust="spacing" textLength="157" x="67.5" y="932.5205">C&#7853;p nh&#7853;t tr&#7841;ng th&#225;i ho&#224;n c&#7885;c</text><line style="stroke:#D6A79E;stroke-width:1.0;stroke-dasharray:2.0,2.0;" x1="10" x2="907.5" y1="946.0635" y2="946.0635"/><text fill="#000000" font-family="Arial" font-size="12" font-weight="bold" lengthAdjust="spacing" textLength="133" x="15" y="957.3193">[additionalPayment &gt; 0]</text><polygon fill="#6B5B53" points="232.5,976.6611,222.5,980.6611,232.5,984.6611,228.5,980.6611" style="stroke:#6B5B53;stroke-width:1.0;"/><line style="stroke:#6B5B53;stroke-width:1.0;stroke-dasharray:2.0,2.0;" x1="226.5" x2="560" y1="980.6611" y2="980.6611"/><text fill="#000000" font-family="Arial" font-size="12" lengthAdjust="spacing" textLength="153" x="238.5" y="976.1182">Hi&#7875;n th&#7883; kho&#7843;n c&#7847;n thu th&#234;m</text><polygon fill="#6B5B53" points="61.5,1004.46,51.5,1008.46,61.5,1012.46,57.5,1008.46" style="stroke:#6B5B53;stroke-width:1.0;"/><line style="stroke:#6B5B53;stroke-width:1.0;stroke-dasharray:2.0,2.0;" x1="55.5" x2="220.5" y1="1008.46" y2="1008.46"/><text fill="#000000" font-family="Arial" font-size="12" lengthAdjust="spacing" textLength="99" x="67.5" y="1003.917">Th&#244;ng b&#225;o s&#7889; ti&#7873;n</text><polygon fill="#6B5B53" points="209.5,1032.2588,219.5,1036.2588,209.5,1040.2588,213.5,1036.2588" style="stroke:#6B5B53;stroke-width:1.0;"/><line style="stroke:#6B5B53;stroke-width:1.0;" x1="50.5" x2="215.5" y1="1036.2588" y2="1036.2588"/><text fill="#000000" font-family="Arial" font-size="12" lengthAdjust="spacing" textLength="147" x="57.5" y="1031.7158">Thanh to&#225;n kho&#7843;n b&#7893; sung</text><polygon fill="#6B5B53" points="549,1060.0576,559,1064.0576,549,1068.0576,553,1064.0576" style="stroke:#6B5B53;stroke-width:1.0;"/><line style="stroke:#6B5B53;stroke-width:1.0;" x1="221.5" x2="555" y1="1064.0576" y2="1064.0576"/><text fill="#000000" font-family="Arial" font-size="12" lengthAdjust="spacing" textLength="139" x="228.5" y="1059.5146">X&#225;c nh&#7853;n s&#7889; ti&#7873;n &#273;&#227; nh&#7853;n</text><line style="stroke:#6B5B53;stroke-width:1.0;" x1="561" x2="603" y1="1091.8564" y2="1091.8564"/><line style="stroke:#6B5B53;stroke-width:1.0;" x1="603" x2="603" y1="1091.8564" y2="1104.8564"/><line style="stroke:#6B5B53;stroke-width:1.0;" x1="562" x2="603" y1="1104.8564" y2="1104.8564"/><polygon fill="#6B5B53" points="572,1100.8564,562,1104.8564,572,1108.8564,568,1104.8564" style="stroke:#6B5B53;stroke-width:1.0;"/><text fill="#000000" font-family="Arial" font-size="12" lengthAdjust="spacing" textLength="177" x="568" y="1087.3135">Ghi ng&#432;&#7901;i v&#224; th&#7901;i &#273;i&#7875;m x&#225;c nh&#7853;n</text><line style="stroke:#D6A79E;stroke-width:1.0;stroke-dasharray:2.0,2.0;" x1="10" x2="907.5" y1="1113.8564" y2="1113.8564"/><text fill="#000000" font-family="Arial" font-size="12" font-weight="bold" lengthAdjust="spacing" textLength="182" x="15" y="1125.1123">[Kh&#244;ng ho&#224;n v&#224; kh&#244;ng thu th&#234;m]</text><line style="stroke:#6B5B53;stroke-width:1.0;" x1="561" x2="603" y1="1148.4541" y2="1148.4541"/><line style="stroke:#6B5B53;stroke-width:1.0;" x1="603" x2="603" y1="1148.4541" y2="1161.4541"/><line style="stroke:#6B5B53;stroke-width:1.0;" x1="562" x2="603" y1="1161.4541" y2="1161.4541"/><polygon fill="#6B5B53" points="572,1157.4541,562,1161.4541,572,1165.4541,568,1161.4541" style="stroke:#6B5B53;stroke-width:1.0;"/><text fill="#000000" font-family="Arial" font-size="12" lengthAdjust="spacing" textLength="163" x="568" y="1143.9111">Ghi nh&#7853;n quy&#7871;t to&#225;n c&#226;n b&#7857;ng</text><line style="stroke:#6B5B53;stroke-width:1.0;" x1="561" x2="603" y1="1196.2529" y2="1196.2529"/><line style="stroke:#6B5B53;stroke-width:1.0;" x1="603" x2="603" y1="1196.2529" y2="1209.2529"/><line style="stroke:#6B5B53;stroke-width:1.0;" x1="562" x2="603" y1="1209.2529" y2="1209.2529"/><polygon fill="#6B5B53" points="572,1205.2529,562,1209.2529,572,1213.2529,568,1209.2529" style="stroke:#6B5B53;stroke-width:1.0;"/><text fill="#000000" font-family="Arial" font-size="12" lengthAdjust="spacing" textLength="188" x="568" y="1191.71">Ki&#7875;m tra to&#224;n b&#7897; ngh&#297;a v&#7909; t&#224;i ch&#237;nh</text><path d="M177,1224.2529 L236,1224.2529 L236,1230.0518 L226,1240.0518 L177,1240.0518 L177,1224.2529 " fill="#FFF5EF" style="stroke:#D6A79E;stroke-width:1.5;"/><rect fill="none" height="127.9941" style="stroke:#D6A79E;stroke-width:1.5;" width="557" x="177" y="1224.2529"/><text fill="#000000" font-family="Arial" font-size="12" font-weight="bold" lengthAdjust="spacing" textLength="14" x="192" y="1236.5088">alt</text><text fill="#000000" font-family="Arial" font-size="12" font-weight="bold" lengthAdjust="spacing" textLength="252" x="251" y="1237.5088">[Refund ho&#7863;c kho&#7843;n thu th&#234;m ch&#432;a ho&#224;n t&#7845;t]</text><polygon fill="#6B5B53" points="232.5,1255.8506,222.5,1259.8506,232.5,1263.8506,228.5,1259.8506" style="stroke:#6B5B53;stroke-width:1.0;"/><line style="stroke:#6B5B53;stroke-width:1.0;stroke-dasharray:2.0,2.0;" x1="226.5" x2="560" y1="1259.8506" y2="1259.8506"/><text fill="#000000" font-family="Arial" font-size="12" lengthAdjust="spacing" textLength="207" x="238.5" y="1255.3076">Gi&#7919; Order = SETTLEMENT_PENDING</text><line style="stroke:#D6A79E;stroke-width:1.0;stroke-dasharray:2.0,2.0;" x1="177" x2="734" y1="1268.8506" y2="1268.8506"/><text fill="#000000" font-family="Arial" font-size="12" font-weight="bold" lengthAdjust="spacing" textLength="73" x="182" y="1280.1064">[&#272;&#227; ho&#224;n t&#7845;t]</text><line style="stroke:#6B5B53;stroke-width:1.0;" x1="561" x2="603" y1="1303.4482" y2="1303.4482"/><line style="stroke:#6B5B53;stroke-width:1.0;" x1="603" x2="603" y1="1303.4482" y2="1316.4482"/><line style="stroke:#6B5B53;stroke-width:1.0;" x1="562" x2="603" y1="1316.4482" y2="1316.4482"/><polygon fill="#6B5B53" points="572,1312.4482,562,1316.4482,572,1320.4482,568,1316.4482" style="stroke:#6B5B53;stroke-width:1.0;"/><text fill="#000000" font-family="Arial" font-size="12" lengthAdjust="spacing" textLength="154" x="568" y="1298.9053">RentalOrder = COMPLETED</text><polygon fill="#6B5B53" points="232.5,1340.2471,222.5,1344.2471,232.5,1348.2471,228.5,1344.2471" style="stroke:#6B5B53;stroke-width:1.0;"/><line style="stroke:#6B5B53;stroke-width:1.0;stroke-dasharray:2.0,2.0;" x1="226.5" x2="560" y1="1344.2471" y2="1344.2471"/><text fill="#000000" font-family="Arial" font-size="12" lengthAdjust="spacing" textLength="105" x="238.5" y="1339.7041">Quy&#7871;t to&#225;n ho&#224;n t&#7845;t</text><path d="M387,1364.2471 L387,1415.2471 L735,1415.2471 L735,1374.2471 L725,1364.2471 L387,1364.2471 " fill="#FFF2E8" style="stroke:#D6A79E;stroke-width:0.5;"/><path d="M725,1364.2471 L725,1374.2471 L735,1374.2471 L725,1364.2471 " fill="#FFF2E8" style="stroke:#D6A79E;stroke-width:0.5;"/><text fill="#000000" font-family="Arial" font-size="12" lengthAdjust="spacing" textLength="327" x="393" y="1380.5029">RentalOrder COMPLETED kh&#244;ng k&#7871;t th&#250;c Reservation ngay.</text><text fill="#000000" font-family="Arial" font-size="12" lengthAdjust="spacing" textLength="297" x="393" y="1394.3018">Reservation ACTIVE ch&#7881; &#8594; COMPLETED khi unit &#273;&#227; tr&#7843;</text><text fill="#000000" font-family="Arial" font-size="12" lengthAdjust="spacing" textLength="179" x="393" y="1408.1006">v&#224; currentTime &gt;= blockedEndAt.</text><!--SRC=[VLPRQzn657xVNt58NreQ9viKNy41ULVhEF5bkwk4509XBCsk1cjd56dar2s5ba9B2OMwj8G-XDereIGbDA65mkv37cJyFvHVqZCpqgxMrdeVX7RcNB_pdNCacGmejEkByFxhN-3Jv20RlfCWHNhChqBefw_0mxFHzrBzUGtxwH7u8ZtY8BFX2mcdXsV7l5QBznWFIKG6i4lSlNua4kurH20Y-A3LQZLRooK9Z_P84iYMu7AR32XO4ID1zNsNVK7XnitIPUmJJpnXl0yz4iIqT6D5aNYI-rnOcr-R_wIiHXydbBiKlgm1_YnNYcYj8jAbrYSb0H5vDCelb-eBra9TNxP999dBGi9bbGtyNH0hMrgs5bkBniqcwz5DnkdKVMDvRSao9jRHT5ZbOzuk2vIrcmlMuh9T-wgKF1UoIBpArarxoTnLcgaH1GKqabYA0OtolrSwb4iIG5UINkyAaDYy5RTTV5BO8fpqQQIly_TQE045hZJdkhTtsaRz89PqC7tT9WS3T0DT6kqpbsgv_AnMq_vWxbQk2IkmbOr-1nFNZie4khRZRDfRzhRpg6rlDpUsrskvS5dDoKQ_8ft2I8GYfbx39r6V8hj7Vy46ZqFgIYPuXyP8oKhrz3Nt8I2IjYYg-LH0A0Bc7a3CIHZxebABU1vJTacG-ri5DdQM7trSM9tjrgCOCvCTsiEAMWEigxpwa4-C5mYghksniRTQJLCYOdrVWkWLu0FKbrRgzRaRD_6v0XzwC0VrQ_CVGVeCFCA20mEkyOFINPA0bfsxiQGrl6f9oZtDGUHI8A6jnyZPcsnq8e64YFi-2Hm_eeXLu3taliY6_xdWflzW0U_R7VjHqzgorcsu3fixNKTJjRACmsC1Y9QLc-oebeyb8biKlwofL3M3Lg3XPwFdC4NPgS6dzOgBiii7-5H3yUe5ecZ0TxFXMoIMY-PVylvCArQxtTcvhzApcdVkTHrywTXtxCRCJDTz1e_pENrwc8sU8X6KFqHG1FlK6zUd6YV3LqIBGPoD3a6oRFGD7rlKaxz6SRQQId7COW0o4fYAab6ofjUrWmjT-20zTe7xsV0rXprLonEkGReicyggvRWq5NqCSohO3hUWVYaZhhiOIMW2ac1KeMctTxeRpgEExTphR6jzPR-HZNvqiOKJJ9J0kUcZfQOz5H8hy5dwAW7qz6ToNLNa4A5566MnAGt2YEIxH2rCHNqNa1RF45Ty7vik39QpkAkhyZX18AVCQILTfadOojfRLmaCtuMJW2_KI65UghtQysTlS8_tqGgIrSKPebwUCumM9RuTQ7xjdO_4X83LETTOnQvGlLL67yCR6YSfaiyauwhW3TqkZgtpnIqrxMqL5zVnFXtpJ5M06oImVmTbXaw7vVZflnZ8ReeZemI4LXYBbRmvFi6cqQqnThQBUmFY9E_ionkXt6YdX-b9VdvPJ_2-uWcMG45_hXgVJqmRwEwQV0oakbRcu1mKCpoP6AS608xVFtW-mKm3LYZVDT78Y2Yb8mt9RnYuV_gIm7usUW4oFM8u0DN8qHsSzry-uWianr6YwDaRKlw-d5N-TNJzDvWrlrgrw3Kifp-b9pEjbH8fVpIiGcDdgxrfEpXvPZYV-aYUig-HqhjLxAiFa6AlbXsCpHT5Cds500nT58nnt13L1WWaERYcbITdLiFPm5sXTieFyFwxdwUiCKWuauPWgjVKO55aS9CemW0SXX_RjrPXDn3k7lLidA7oscGv_my0]--></g></svg>