<?xml version="1.0" encoding="us-ascii" standalone="no"?><svg xmlns="http://www.w3.org/2000/svg" xmlns:xlink="http://www.w3.org/1999/xlink" contentStyleType="text/css" height="676px" preserveAspectRatio="none" style="width:747px;height:676px;background:#FFFDF9;" version="1.1" viewBox="0 0 747 676" width="747px" zoomAndPan="magnify"><defs/><g><rect fill="#FFFDF9" height="676" style="stroke:none;stroke-width:1.0;" width="747" x="0" y="0"/><text fill="#000000" font-family="Arial" font-size="14" font-weight="bold" lengthAdjust="spacing" textLength="229" x="252.355" y="23.1318">D-SHOP &#8212; V&#242;ng &#273;&#7901;i Reservation</text><ellipse cx="449.42" cy="53.0986" fill="#222222" rx="10" ry="10" style="stroke:#222222;stroke-width:1.0;"/><rect fill="#FFFFFF" height="40" rx="12.5" ry="12.5" style="stroke:#9A7F73;stroke-width:0.5;" width="124" x="387.42" y="138.0986"/><text fill="#3F3530" font-family="Arial" font-size="12" lengthAdjust="spacing" textLength="114" x="392.42" y="162.4551">TEMPORARY_HOLD</text><rect fill="#FFFFFF" height="40" rx="12.5" ry="12.5" style="stroke:#9A7F73;stroke-width:0.5;" width="82" x="253.42" y="267.0986"/><text fill="#3F3530" font-family="Arial" font-size="12" lengthAdjust="spacing" textLength="72" x="258.42" y="291.4551">CONFIRMED</text><rect fill="#FFFFFF" height="40" rx="12.5" ry="12.5" style="stroke:#9A7F73;stroke-width:0.5;" width="62" x="618.42" y="337.0986"/><text fill="#3F3530" font-family="Arial" font-size="12" lengthAdjust="spacing" textLength="52" x="623.42" y="361.4551">EXPIRED</text><rect fill="#FFFFFF" height="40" rx="12.5" ry="12.5" style="stroke:#9A7F73;stroke-width:0.5;" width="51" x="397.92" y="407.0986"/><text fill="#3F3530" font-family="Arial" font-size="12" lengthAdjust="spacing" textLength="41" x="402.92" y="431.4551">ACTIVE</text><rect fill="#FFFFFF" height="40" rx="12.5" ry="12.5" style="stroke:#9A7F73;stroke-width:0.5;" width="74" x="76.42" y="407.0986"/><text fill="#3F3530" font-family="Arial" font-size="12" lengthAdjust="spacing" textLength="64" x="81.42" y="431.4551">RELEASED</text><rect fill="#FFFFFF" height="40" rx="12.5" ry="12.5" style="stroke:#9A7F73;stroke-width:0.5;" width="84" x="317.42" y="541.5986"/><text fill="#3F3530" font-family="Arial" font-size="12" lengthAdjust="spacing" textLength="74" x="322.42" y="565.9551">COMPLETED</text><ellipse cx="359.42" cy="659.0986" fill="none" rx="11" ry="11" style="stroke:#222222;stroke-width:1.0;"/><ellipse cx="359.42" cy="659.0986" fill="#222222" rx="6" ry="6" style="stroke:#222222;stroke-width:1.0;"/><g id="elem_GMN21"><path d="M174.42,139.0986 L174.42,176.6963 A0,0 0 0 0 174.42,176.6963 L352.42,176.6963 A0,0 0 0 0 352.42,176.6963 L352.42,162.0986 L387.28,158.0986 L352.42,154.0986 L352.42,149.0986 L342.42,139.0986 L174.42,139.0986 A0,0 0 0 0 174.42,139.0986 " fill="#FFF2E8" style="stroke:#D6A79E;stroke-width:0.5;"/><path d="M342.42,139.0986 L342.42,149.0986 L352.42,149.0986 L342.42,139.0986 " fill="#FFF2E8" style="stroke:#D6A79E;stroke-width:0.5;"/><text fill="#4A403B" font-family="Arial" font-size="12" lengthAdjust="spacing" textLength="108" x="180.42" y="155.3545">Ch&#7863;n availability khi</text><text fill="#4A403B" font-family="Arial" font-size="12" lengthAdjust="spacing" textLength="157" x="180.42" y="169.1533">holdExpiresAt &gt; currentTime.</text></g><g id="elem_GMN24"><path d="M185.92,408.0986 L185.92,423.0986 L150.52,427.0986 L185.92,431.0986 L185.92,445.6963 A0,0 0 0 0 185.92,445.6963 L362.92,445.6963 A0,0 0 0 0 362.92,445.6963 L362.92,418.0986 L352.92,408.0986 L185.92,408.0986 A0,0 0 0 0 185.92,408.0986 " fill="#FFF2E8" style="stroke:#D6A79E;stroke-width:0.5;"/><path d="M352.92,408.0986 L352.92,418.0986 L362.92,418.0986 L352.92,408.0986 " fill="#FFF2E8" style="stroke:#D6A79E;stroke-width:0.5;"/><text fill="#4A403B" font-family="Arial" font-size="12" lengthAdjust="spacing" textLength="127" x="191.92" y="424.3545">B&#7843;n ghi c&#361; &#273;&#432;&#7907;c gi&#7919; l&#7841;i</text><text fill="#4A403B" font-family="Arial" font-size="12" lengthAdjust="spacing" textLength="156" x="191.92" y="438.1533">&#273;&#7875; b&#7843;o to&#224;n l&#7883;ch s&#7917; ph&#226;n b&#7893;.</text></g><g id="elem_GMN27"><path d="M484.42,408.0986 L484.42,423.0986 L449.15,427.0986 L484.42,431.0986 L484.42,445.6963 A0,0 0 0 0 484.42,445.6963 L672.42,445.6963 A0,0 0 0 0 672.42,445.6963 L672.42,418.0986 L662.42,408.0986 L484.42,408.0986 A0,0 0 0 0 484.42,408.0986 " fill="#FFF2E8" style="stroke:#D6A79E;stroke-width:0.5;"/><path d="M662.42,408.0986 L662.42,418.0986 L672.42,418.0986 L662.42,408.0986 " fill="#FFF2E8" style="stroke:#D6A79E;stroke-width:0.5;"/><text fill="#4A403B" font-family="Arial" font-size="12" lengthAdjust="spacing" textLength="167" x="490.42" y="424.3545">Ch&#7881; ACTIVE sau khi RentalUnit</text><text fill="#4A403B" font-family="Arial" font-size="12" lengthAdjust="spacing" textLength="123" x="490.42" y="438.1533">th&#7921;c t&#7871; &#273;&#432;&#7907;c b&#224;n giao.</text></g><g id="elem_GMN30"><path d="M436.42,536.0986 L436.42,557.5986 L401.69,561.5986 L436.42,565.5986 L436.42,587.4951 A0,0 0 0 0 436.42,587.4951 L672.42,587.4951 A0,0 0 0 0 672.42,587.4951 L672.42,546.0986 L662.42,536.0986 L436.42,536.0986 A0,0 0 0 0 436.42,536.0986 " fill="#FFF2E8" style="stroke:#D6A79E;stroke-width:0.5;"/><path d="M662.42,536.0986 L662.42,546.0986 L672.42,546.0986 L662.42,536.0986 " fill="#FFF2E8" style="stroke:#D6A79E;stroke-width:0.5;"/><text fill="#4A403B" font-family="Arial" font-size="12" lengthAdjust="spacing" textLength="215" x="442.42" y="552.3545">RentalOrder c&#243; th&#7875; COMPLETED tr&#432;&#7899;c.</text><text fill="#4A403B" font-family="Arial" font-size="12" lengthAdjust="spacing" textLength="173" x="442.42" y="566.1533">Reservation ch&#7881; k&#7871;t th&#250;c sau khi</text><text fill="#4A403B" font-family="Arial" font-size="12" lengthAdjust="spacing" textLength="180" x="442.42" y="579.9521">&#273;&#227; tr&#7843; unit v&#224; h&#7871;t blocked interval.</text></g><!--link *start* to TEMPORARY_HOLD--><g id="link_*start*_TEMPORARY_HOLD"><path d="M449.42,63.2386 C449.42,79.8786 449.42,109.4586 449.42,131.7086 " fill="none" id="*start*-to-TEMPORARY_HOLD" style="stroke:#6B5B53;stroke-width:1.0;"/><polygon fill="#6B5B53" points="449.42,137.7086,453.42,128.7086,449.42,132.7086,445.42,128.7086,449.42,137.7086" style="stroke:#6B5B53;stroke-width:1.0;"/><text fill="#000000" font-family="Arial" font-size="12" lengthAdjust="spacing" textLength="116" x="450.42" y="105.3545">Checkout th&#224;nh c&#244;ng</text></g><!--link TEMPORARY_HOLD to CONFIRMED--><g id="link_TEMPORARY_HOLD_CONFIRMED"><path d="M423.63,178.3286 C411.86,187.2386 397.81,198.0586 385.42,208.0986 C361.33,227.6186 338.9727,246.8845 320.7127,262.8845 " fill="none" id="TEMPORARY_HOLD-to-CONFIRMED" style="stroke:#6B5B53;stroke-width:1.0;"/><polygon fill="#6B5B53" points="316.2,266.8386,325.6052,263.9158,319.9606,263.5435,320.3329,257.8989,316.2,266.8386" style="stroke:#6B5B53;stroke-width:1.0;"/><text fill="#000000" font-family="Arial" font-size="12" lengthAdjust="spacing" textLength="112" x="386.42" y="220.3545">Thanh to&#225;n ti&#7873;n thu&#234;</text><text fill="#000000" font-family="Arial" font-size="12" lengthAdjust="spacing" textLength="100" x="392.42" y="234.1533">[hold c&#242;n hi&#7879;u l&#7921;c]</text></g><!--link TEMPORARY_HOLD to EXPIRED--><g id="link_TEMPORARY_HOLD_EXPIRED"><path d="M470.96,178.1486 C480.95,187.1086 492.91,198.0186 503.42,208.0986 C550.57,253.3186 599.8811,304.2442 627.1611,332.7442 " fill="none" id="TEMPORARY_HOLD-to-EXPIRED" style="stroke:#6B5B53;stroke-width:1.0;"/><polygon fill="#6B5B53" points="631.31,337.0786,627.9763,327.8111,627.8526,333.4666,622.1971,333.3429,631.31,337.0786" style="stroke:#6B5B53;stroke-width:1.0;"/><text fill="#000000" font-family="Arial" font-size="12" lengthAdjust="spacing" textLength="116" x="533.42" y="227.3545">holdExpiresAt &#273;&#227; qua</text></g><!--link CONFIRMED to ACTIVE--><g id="link_CONFIRMED_ACTIVE"><path d="M335.48,303.4486 C352.37,311.4086 371.07,322.5486 384.42,337.0986 C402.9,357.2286 412.0193,381.7433 417.3893,401.2733 " fill="none" id="CONFIRMED-to-ACTIVE" style="stroke:#6B5B53;stroke-width:1.0;"/><polygon fill="#6B5B53" points="418.98,407.0586,420.4508,397.3202,417.6544,402.2376,412.737,399.4412,418.98,407.0586" style="stroke:#6B5B53;stroke-width:1.0;"/><text fill="#000000" font-family="Arial" font-size="12" lengthAdjust="spacing" textLength="113" x="409.42" y="361.8545">B&#224;n giao th&#224;nh c&#244;ng</text></g><!--link CONFIRMED to RELEASED--><g id="link_CONFIRMED_RELEASED"><path d="M253.25,289.1586 C183.56,291.9086 47.04,301.7786 17.42,337.0986 C6,350.7186 8.14,361.9386 17.42,377.0986 C30.22,398.0086 49.3674,408.4529 70.5674,415.5129 " fill="none" id="CONFIRMED-to-RELEASED" style="stroke:#6B5B53;stroke-width:1.0;"/><polygon fill="#6B5B53" points="76.26,417.4086,68.9849,410.7699,71.5161,415.8288,66.4572,418.3601,76.26,417.4086" style="stroke:#6B5B53;stroke-width:1.0;"/><text fill="#000000" font-family="Arial" font-size="12" lengthAdjust="spacing" textLength="62" x="18.42" y="361.8545">NO_SHOW</text></g><!--link CONFIRMED to RELEASED--><g id="link_CONFIRMED_RELEASED"><path d="M253.08,294.3286 C207.43,302.1186 138.15,316.9086 121.42,337.0986 C105.38,356.4486 105.5613,381.0133 108.4913,400.8033 " fill="none" id="CONFIRMED-to-RELEASED-1" style="stroke:#6B5B53;stroke-width:1.0;"/><polygon fill="#6B5B53" points="109.37,406.7386,112.0087,397.2498,108.6377,401.7925,104.095,398.4215,109.37,406.7386" style="stroke:#6B5B53;stroke-width:1.0;"/><text fill="#000000" font-family="Arial" font-size="12" lengthAdjust="spacing" textLength="128" x="122.42" y="361.8545">FULFILLMENT_FAILED</text></g><!--link CONFIRMED to RELEASED--><g id="link_CONFIRMED_RELEASED"><path d="M290.72,307.4186 C285.92,327.4686 275.63,358.4586 255.42,377.0986 C225.35,404.8286 207.08,393.7586 168.42,407.0986 C162.69,409.0786 162.2897,409.2053 156.3697,411.2553 " fill="none" id="CONFIRMED-to-RELEASED-2" style="stroke:#6B5B53;stroke-width:1.0;"/><polygon fill="#6B5B53" points="150.7,413.2186,160.5134,414.0534,155.4247,411.5825,157.8957,406.4939,150.7,413.2186" style="stroke:#6B5B53;stroke-width:1.0;"/><text fill="#000000" font-family="Arial" font-size="12" lengthAdjust="spacing" textLength="87" x="282.42" y="361.8545">Thay RentalUnit</text></g><!--link ACTIVE to COMPLETED--><g id="link_ACTIVE_COMPLETED"><path d="M414.11,447.3686 C401.98,472.4886 383.4899,510.776 371.3499,535.906 " fill="none" id="ACTIVE-to-COMPLETED" style="stroke:#6B5B53;stroke-width:1.0;"/><polygon fill="#6B5B53" points="368.74,541.3086,376.2566,534.9447,370.9149,536.8065,369.0532,531.4648,368.74,541.3086" style="stroke:#6B5B53;stroke-width:1.0;"/><text fill="#000000" font-family="Arial" font-size="12" lengthAdjust="spacing" textLength="123" x="411.92" y="489.3545">RentalUnit &#273;&#227; ho&#224;n tr&#7843;</text><text fill="#000000" font-family="Arial" font-size="12" lengthAdjust="spacing" textLength="146" x="400.42" y="503.1533">AND now &gt;= blockedEndAt</text></g><!--link EXPIRED to *end*--><g id="link_EXPIRED_*end*"><path d="M671.02,377.4686 C678.69,385.7486 686.41,396.0486 690.42,407.0986 C717.73,482.2886 740.71,524.8786 690.42,587.0986 C648.76,638.6386 429.6602,654.1254 376.6102,657.1654 " fill="none" id="EXPIRED-to-*end*" style="stroke:#6B5B53;stroke-width:1.0;"/><polygon fill="#6B5B53" points="370.62,657.5086,379.8341,660.9872,375.6118,657.2226,379.3764,653.0003,370.62,657.5086" style="stroke:#6B5B53;stroke-width:1.0;"/></g><!--link RELEASED to *end*--><g id="link_RELEASED_*end*"><path d="M133.97,447.3086 C185.47,495.4686 313.938,615.5701 347.328,646.8001 " fill="none" id="RELEASED-to-*end*" style="stroke:#6B5B53;stroke-width:1.0;"/><polygon fill="#6B5B53" points="351.71,650.8986,347.8693,641.8295,348.0583,647.4832,342.4046,647.6722,351.71,650.8986" style="stroke:#6B5B53;stroke-width:1.0;"/></g><!--link COMPLETED to *end*--><g id="link_COMPLETED_*end*"><path d="M359.42,581.9286 C359.42,601.8686 359.42,626.2286 359.42,641.9186 " fill="none" id="COMPLETED-to-*end*" style="stroke:#6B5B53;stroke-width:1.0;"/><polygon fill="#6B5B53" points="359.42,647.9186,363.42,638.9186,359.42,642.9186,355.42,638.9186,359.42,647.9186" style="stroke:#6B5B53;stroke-width:1.0;"/></g><!--SRC=[VLHTQnD157tVNt71Dw6bDlsmWeLDiai3-I99gzAMCjbCCaCsCt4osrf5KFeWufEWJoAqzab1r2e8sGSVelwFzPTuP_ErgOtxid3lkUUUU-_PrLpx5B8BrQrI6VuyUGKxWmlHWfyle_0jXmhjKNL8D9V2idfjBhf4aGxKYTTkAHc8HaRwKi4rrtMpxaO2qQ1D4lZQbK8NIOU2hJZnhyvN-KCADvOJoHuZ3Nd4KKQJ-3sQoDXAoQDHpxNqQderbIpJH5DuP04-wIiKuZFCITMWQXJViDVTzLGSDs96qPIRMaqjnT6g9ahFjZHXPy8y2ZvEA17olqAMdPl_2icksUiRpcKXA_RAKYgDv8mtAD1ELn_ZxdgUujtXKNQlxyF2mYRKd4AvLB4hzmwsIlait88CervR1Xeq6vmA1jxWcsXPbs2cCbCgkhbAmJ55DKOGgkNWJ83cKVWKNomOVDWJkqpw3IIv4C0myIm0Fmg_UFjNCJftoxbAp6UAd0TThcZFrcYgmJdS3uXbJNiQl9sfvNOSXATHARGuaREYPz4L9-_OrPY-M3f0tzwP3t2tysukdoyunTg1Q-VoJdO-5cS_HiCBJVnjmRLbZMGDTrGevvrQZ9j2XWCnQLHh5VNFzuHTpEBrZs3pDjHzwRLf0urY8zbu9uODRsPD6ey3qnRZY1NRoATD3R9vwS3eamoB-jy5a4F2VLBdFaThj1d7pEpMDy4Bb4BHDTwXYnOLZTYV8th5Mopc7ml2-ZIEWdTW7BnVxt78tv-ZyDp3mqJX9pnx_ymqCN-84wWZL1h3u0hG42yy1hqe_0XTDdWdC1k-djznkD_X9E7piGjw931Z92y1Q0TZDj1H_yTKJttiblaj9aj5ZY5XoNnowAklCUT9uh9Q6TuttcACdVptm8lLjR5r_2trlR74U0beWFZq41X370vEWSN8qVM12ssO_8J6lm00]--></g></svg>